<?xml version="1.0" standalone="no"?>
 <!DOCTYPE svg PUBLIC "-//W3C//DTD SVG 1.1//EN" 
 "http://www.w3.org/Graphics/SVG/1.1/DTD/svg11.dtd"> 
<svg
  xmlns:svg="http://www.w3.org/2000/svg"
  xmlns="http://www.w3.org/2000/svg"
  xmlns:xlink="http://www.w3.org/1999/xlink"
  version="1.1"
  width="41.5798mm" height="42.1132mm" viewBox="0.0000 0.0000 41.5798 42.1132">
<title>SVG Image created as earring-Edge_Cuts.svg date 2024/05/25 23:15:53 </title>
  <desc>Image generated by PCBNEW </desc>
<g style="fill:#000000; fill-opacity:1.0000;stroke:#000000; stroke-opacity:1.0000;
stroke-linecap:round; stroke-linejoin:round;"
 transform="translate(0 0) scale(1 1)">
</g>
<g style="fill:#000000; fill-opacity:0.0; 
stroke:#000000; stroke-width:0.0000; stroke-opacity:1; 
stroke-linecap:round; stroke-linejoin:round;">
</g>
<g style="fill:#000000; fill-opacity:1.0000; 
stroke:#000000; stroke-width:0.0212; stroke-opacity:1; 
stroke-linecap:round; stroke-linejoin:round;">
<rect x="-5.000000" y="-5.000000" width="51.582300" height="52.114602" rx="0.000000" />
</g>
<g style="fill:#FFFFFF; fill-opacity:1.0000; 
stroke:#FFFFFF; stroke-width:0.0212; stroke-opacity:1; 
stroke-linecap:round; stroke-linejoin:round;">
</g>
<g style="fill:#FFFFFF; fill-opacity:1.0000; 
stroke:#FFFFFF; stroke-width:0.2000; stroke-opacity:1; 
stroke-linecap:round; stroke-linejoin:round;">
</g>
<g style="fill:#FFFFFF; fill-opacity:0.0; 
stroke:#FFFFFF; stroke-width:0.2000; stroke-opacity:1; 
stroke-linecap:round; stroke-linejoin:round;">
<path d="M35.9823 0.7750
L40.9823 0.7750
" />
<path d="M34.7911 0.6000 A0.5000 0.5000 0.0 0 0 34.2911 0.1000" />
<path d="M5.1000 17.0573
L1.1000 17.0573
" />
<path d="M34.7912 1.2750
L35.4823 1.2750
" />
<path d="M35.9823 9.2750
L40.9823 9.2750
" />
<path d="M8.7912 41.5146
L8.7912 33.0146
" />
<path d="M34.7912 25.6323
L34.7912 17.4823
" />
<path d="M34.2912 9.6000
L34.2912 10.2912
" />
<path d="M34.2911 16.2912 A0.5001 0.5001 0.0 0 0 34.7911 15.7912" />
<path d="M34.7912 9.1000
L34.7912 8.7750
" />
<path d="M41.4823 1.2750 A0.4999 0.4999 0.0 0 0 40.9823 0.7750" />
<path d="M9.2912 42.0146
L34.2912 42.0146
" />
<path d="M34.2912 31.8235 A0.5001 0.5001 0.0 0 0 34.7912 31.3235" />
<path d="M34.2912 31.8235
L34.2912 32.5146
" />
<path d="M6.1000 18.0573
L6.1000 19.0573
" />
<path d="M9.2912 26.8235 A0.4999 0.4999 0.0 0 0 8.7912 27.3235" />
<path d="M1.1000 17.0573
L0.1000 18.0573
" />
<path d="M9.2911 10.2912 A0.4999 0.4999 0.0 0 0 8.7911 10.7912" />
<path d="M8.7912 31.3235
L8.7912 27.3235
" />
<path d="M34.7912 31.3235
L34.7912 27.3235
" />
<path d="M5.1000 26.0573
L6.1000 25.0573
" />
<path d="M8.7912 19.0573
L8.7912 17.4823
" />
<path d="M8.7911 9.1000 A0.5000 0.5000 0.0 0 0 9.2911 9.6000" />
<path d="M8.7911 25.6323 A0.5000 0.5000 0.0 0 0 9.2911 26.1323" />
<path d="M9.2912 10.2912
L9.2912 9.6000
" />
<path d="M34.7912 41.5146
L34.7912 33.0146
" />
<path d="M6.1000 18.0573
L5.1000 17.0573
" />
<path d="M34.7911 17.4823 A0.5000 0.5000 0.0 0 0 34.2911 16.9823" />
<path d="M0.1000 18.0573
L0.1000 25.0573
" />
<path d="M9.2912 26.8235
L9.2912 26.1323
" />
<path d="M35.9823 0.7750 A0.5000 0.5000 0.0 0 0 35.4823 1.2750" />
<path d="M34.2912 9.6000 A0.5000 0.5000 0.0 0 0 34.7912 9.1000" />
<path d="M8.7912 41.5146 A0.5000 0.5000 0.0 0 0 9.2912 42.0146" />
<path d="M0.1000 25.0573
L1.1000 26.0573
" />
<path d="M9.2912 0.1000 A0.5000 0.5000 0.0 0 0 8.7912 0.6000" />
<path d="M5.1000 26.0573
L1.1000 26.0573
" />
<path d="M34.2912 42.0146 A0.5000 0.5000 0.0 0 0 34.7912 41.5146" />
<path d="M8.7912 15.7912
L8.7912 10.7912
" />
<path d="M8.7912 9.1000
L8.7912 0.6000
" />
<path d="M34.2912 16.2912
L34.2912 16.9823
" />
<path d="M8.7912 25.6323
L8.7912 24.0573
" />
<path d="M34.7912 15.7912
L34.7912 10.7912
" />
<path d="M8.7912 24.0573
L6.1000 24.0573
" />
<path d="M9.2912 32.5146 A0.5000 0.5000 0.0 0 0 8.7912 33.0146" />
<path d="M9.2912 16.9823
L9.2912 16.2912
" />
<path d="M35.4823 8.7750 A0.4999 0.4999 0.0 0 0 35.9823 9.2750" />
<path d="M41.4823 8.7750
L41.4823 1.2750
" />
<path d="M34.2911 26.1323 A0.5000 0.5000 0.0 0 0 34.7911 25.6323" />
<path d="M34.7911 10.7912 A0.5000 0.5000 0.0 0 0 34.2911 10.2912" />
<path d="M34.7912 27.3235 A0.5000 0.5000 0.0 0 0 34.2912 26.8235" />
<path d="M6.1000 19.0573
L8.7912 19.0573
" />
<path d="M34.7912 1.2750
L34.7912 0.6000
" />
<path d="M8.7911 15.7912 A0.5000 0.5000 0.0 0 0 9.2911 16.2912" />
<path d="M9.2911 16.9823 A0.5000 0.5000 0.0 0 0 8.7911 17.4823" />
<path d="M35.4823 8.7750
L34.7912 8.7750
" />
<path d="M9.2912 0.1000
L34.2912 0.1000
" />
<path d="M34.2912 26.1323
L34.2912 26.8235
" />
<path d="M8.7912 31.3235 A0.5000 0.5000 0.0 0 0 9.2912 31.8235" />
<path d="M9.2912 32.5146
L9.2912 31.8235
" />
<path d="M34.7912 33.0146 A0.5000 0.5000 0.0 0 0 34.2912 32.5146" />
<path d="M6.1000 24.0573
L6.1000 25.0573
" />
<path d="M40.9823 9.2750 A0.5000 0.5000 0.0 0 0 41.4823 8.7750" />
<g >
</g>
<g >
</g>
<g >
</g>
<g >
</g>
<g >
</g>
<g >
</g>
<g >
</g>
<g >
</g>
<g >
</g>
<g >
</g>
<g >
</g>
<g >
</g>
<g >
</g>
<g >
</g>
<g >
</g>
<g >
</g>
<g >
</g>
<g >
</g>
<g >
</g>
<g >
</g>
<g >
</g>
<g >
</g>
<g >
</g>
<g >
</g>
<g >
</g>
<g >
</g>
<g >
</g>
<g >
</g>
<g >
</g>
<g >
</g>
<g >
</g>
<g >
</g>
<g >
</g>
<g >
</g>
<g >
</g>
<g >
</g>
<g >
</g>
<g >
</g>
<g >
</g>
<g >
</g>
<g >
</g>
<g >
</g>
<g >
</g>
<g >
</g>
<g >
</g>
<g >
</g>
<g >
</g>
<g >
</g>
<g >
</g>
<g >
</g>
<g >
</g>
<g >
</g>
<g >
</g>
<g >
</g>
<g >
</g>
<g >
</g>
<g >
</g>
<g >
</g>
<g >
</g>
<g >
</g>
<g >
</g>
<g >
</g>
<g >
</g>
<g >
</g>
<g >
</g>
<g >
</g>
<g >
</g>
<g >
</g>
<g >
</g>
<g >
</g>
<g >
</g>
<g >
</g>
<g >
</g>
<g >
</g>
<g >
</g>
<g >
</g>
<g >
</g>
<g >
</g>
<g >
</g>
<g >
</g>
<g >
</g>
<g >
</g>
<g >
</g>
<g >
</g>
<g >
</g>
<g >
</g>
<g >
</g>
<g >
</g>
<g >
</g>
<g >
</g>
<g >
</g>
<g >
</g>
<g >
</g>
<g >
</g>
<g >
</g>
<g >
</g>
<g >
</g>
<g >
</g>
<g >
</g>
<g >
</g>
<g >
</g>
<g >
</g>
<g >
</g>
</g> 
</svg>
